<svg width="115" height="18" viewBox="0 0 115 18" fill="none" xmlns="http://www.w3.org/2000/svg">
<path d="M101.653 5.51298H99.8497V17.6994H101.653V5.51298ZM50.0276 5.51298H48.2242V17.6994H50.0276V5.51298ZM14.4693 5.23532H16.5237C15.9747 3.44681 13.6015 0.0229787 8.6948 0.0229787C3.78806 0.0229787 0 3.89106 0 9.01149C0 14.2009 3.74278 18 8.6948 18C13.5997 18 15.9747 14.5015 16.4784 12.8298H14.492C13.9449 13.9194 12.2093 16.1196 8.6948 16.1196C4.92183 16.1196 2.05438 13.0845 2.05438 9.03447C2.05438 4.93468 4.92938 1.89957 8.6948 1.89957C12.1414 1.89957 13.8524 4.09979 14.4693 5.23532ZM28.003 11.6062C28.003 14.2238 26.1768 16.2402 23.6905 16.2402C21.2041 16.2402 19.3515 14.2238 19.3515 11.6062C19.3515 8.98851 21.1777 6.97213 23.6905 6.97213C26.2033 6.97213 28.003 8.98851 28.003 11.6062ZM27.9803 17.6994H29.7838V5.51298H27.9803V7.81085C27.6162 7.00085 26.3372 5.23915 23.6207 5.23915C20.1986 5.23915 17.5047 7.97362 17.5047 11.61C17.5047 15.2464 20.1986 17.9809 23.6207 17.9809C26.3372 17.9809 27.5936 16.244 27.9803 15.4092V17.6994ZM31.974 17.6994H33.7775V0H31.974V17.6994ZM42.0856 17.6994L46.7414 5.51298H44.7549L40.9367 15.8228L37.1316 5.51298H35.1471L39.8048 17.6994H42.0856ZM48.2015 3.3817H50.0503V1.25043H48.2015V3.3817ZM60.89 17.6994H62.7161V10.8191C62.7161 7.73809 61.1409 5.23532 57.7868 5.23532C55.2985 5.23532 54.2496 6.88021 54.0138 7.55234V5.51298H52.2179V17.6994H54.0213V10.957C54.0213 8.61702 55.323 6.97213 57.4906 6.97213C59.6581 6.97213 60.8862 8.57106 60.8862 10.8651L60.89 17.6994ZM81.4319 17.6994L74.5614 8.17851L81.4319 0.327447H79.0569L71.0242 9.59553V0.323617H69.0453V17.6994H71.0318V12.2094L73.1955 9.72958L79.1531 17.6994H81.4319ZM82.4582 17.6994H84.2617V0H82.4582V17.6994ZM87.9101 10.4477C88.0788 9.46061 88.5857 8.56583 89.3413 7.92145C90.097 7.27706 91.0527 6.92453 92.0396 6.92617C94.4355 6.92617 95.7824 8.61702 96.1484 10.4477H87.9101ZM87.7988 12.0638H98.0971C98.1896 8.07894 95.5636 5.22957 92.0491 5.22957C88.6025 5.22957 85.9784 8.01 85.9784 11.6004C85.9784 15.1909 88.5798 17.9713 92.0943 17.9713C95.7013 17.9713 97.4821 15.4455 97.9424 13.7777H96.1408C95.6617 14.7983 94.4977 16.267 92.1 16.267C89.7023 16.267 87.9497 14.4134 87.8101 12.0734L87.7988 12.0638ZM99.8383 3.38553H101.681V1.25043H99.8327L99.8383 3.38553ZM114.353 17.7032V10.8191C114.353 7.73809 112.778 5.23532 109.424 5.23532C106.935 5.23532 105.886 6.88021 105.651 7.55234V5.51298H103.847V17.6994H105.643V10.957C105.643 8.61702 106.943 6.97213 109.112 6.97213C111.282 6.97213 112.508 8.57106 112.508 10.8651V17.6994L114.353 17.7032Z" fill="#1E1E1E"/>
</svg>
