<svg width="512" height="512" viewBox="0 0 512 512" fill="none" xmlns="http://www.w3.org/2000/svg">
<g clip-path="url(#clip0_346_2885)">
<path d="M256.001 512C397.386 512 512.001 397.385 512.001 256C512.001 114.615 397.386 0 256.001 0C114.616 0 0.000976562 114.615 0.000976562 256C0.000976562 397.385 114.616 512 256.001 512Z" fill="#F0F0F0"/>
<path d="M496.078 345.043C506.369 317.31 512.001 287.314 512.001 256C512.001 224.686 506.369 194.69 496.078 166.957H15.924C5.63398 194.69 0.000976562 224.686 0.000976562 256C0.000976562 287.314 5.63398 317.31 15.924 345.043L256.001 367.304L496.078 345.043Z" fill="#0052B4"/>
<path d="M256.001 512C366.072 512 459.907 442.528 496.078 345.043H15.924C52.095 442.528 145.93 512 256.001 512Z" fill="#D80027"/>
</g>
<defs>
<clipPath id="clip0_346_2885">
<rect width="512" height="512" fill="white" transform="translate(0.000976562)"/>
</clipPath>
</defs>
</svg>
